<?xml version="1.0" encoding="utf-8"?>
<!-- Generator: Adobe Illustrator 18.0.0, SVG Export Plug-In . SVG Version: 6.00 Build 0)  -->
<!DOCTYPE svg PUBLIC "-//W3C//DTD SVG 1.1//EN" "http://www.w3.org/Graphics/SVG/1.1/DTD/svg11.dtd">
<svg version="1.1" id="Layer_1" xmlns="http://www.w3.org/2000/svg" xmlns:xlink="http://www.w3.org/1999/xlink" x="0px" y="0px"
	 viewBox="442.3 395.7 282.6 50.4" enable-background="new 442.3 395.7 282.6 50.4" xml:space="preserve">
<g>
	<g>
		<path fill="#636567" d="M505,433.2V408h1.9v25.2H505z"/>
		<path fill="#636567" d="M534,433.2l-17.7-22.4v22.4h-1.8V408h1.8l17.4,21.9V408h1.8v25.2H534z"/>
		<path fill="#636567" d="M551.2,409.7v23.5h-1.9v-23.5h-8.8V408H560v1.7H551.2z"/>
		<path fill="#636567" d="M582.7,433.2l-3.2-7.1h-14.9l-3.2,7.1h-1.9l11.7-25.4h1.8l11.7,25.4H582.7z M572.1,409.8l-6.7,14.6h13.3
			L572.1,409.8z"/>
		<path fill="#6AB653" d="M612,433.3h-1.5l-7.4-21.9l-7.4,21.9h-1.5l-9.1-25.4h2.1l7.9,22.4l7.4-22.5h1.4l7.4,22.5l7.9-22.4h1.9
			L612,433.3z"/>
		<path fill="#6AB653" d="M648.5,425.5c-0.6,1.6-1.5,3-2.6,4.2c-1.1,1.2-2.4,2.2-4,2.9c-1.6,0.7-3.3,1.1-5.2,1.1
			c-1.9,0-3.7-0.4-5.2-1.1s-2.9-1.7-4-2.8c-1.1-1.2-2-2.6-2.6-4.1c-0.6-1.6-0.9-3.2-0.9-4.9v-0.1c0-1.7,0.3-3.4,0.9-4.9
			c0.6-1.5,1.5-3,2.6-4.2c1.1-1.2,2.4-2.2,4-2.9c1.6-0.7,3.3-1.1,5.2-1.1c1.9,0,3.6,0.4,5.2,1.1c1.6,0.7,2.9,1.7,4,2.8
			c1.1,1.2,2,2.6,2.6,4.1c0.6,1.6,0.9,3.2,0.9,4.9c0,0,0,0,0,0.1C649.4,422.3,649.1,423.9,648.5,425.5z M647.4,420.6
			c0-1.6-0.3-3-0.8-4.4c-0.5-1.4-1.3-2.6-2.2-3.6c-0.9-1-2.1-1.8-3.4-2.4c-1.3-0.6-2.8-0.9-4.3-0.9c-1.6,0-3,0.3-4.3,0.9
			s-2.4,1.4-3.4,2.4c-0.9,1-1.7,2.2-2.2,3.6s-0.8,2.8-0.8,4.4v0.1c0,1.6,0.3,3,0.8,4.4c0.5,1.4,1.3,2.6,2.2,3.6
			c0.9,1,2.1,1.8,3.4,2.4c1.3,0.6,2.8,0.9,4.3,0.9c1.6,0,3-0.3,4.3-0.9c1.3-0.6,2.4-1.4,3.4-2.4c0.9-1,1.7-2.2,2.2-3.6
			C647.2,423.7,647.4,422.2,647.4,420.6L647.4,420.6z"/>
		<path fill="#6AB653" d="M673.7,433.2l-8-10.4h-8.2v10.4h-1.9V408h10.6c1.4,0,2.6,0.2,3.7,0.5c1.1,0.3,2,0.8,2.8,1.5
			c0.8,0.6,1.4,1.4,1.8,2.3c0.4,0.9,0.6,1.8,0.6,2.9v0.1c0,1.1-0.2,2-0.6,2.8s-0.9,1.5-1.5,2.1c-0.7,0.6-1.4,1.1-2.3,1.5
			c-0.9,0.4-1.9,0.6-2.9,0.8l8.3,10.8L673.7,433.2L673.7,433.2z M673.3,415.2c0-1.7-0.6-3.1-1.9-4c-1.3-0.9-3-1.5-5.3-1.5h-8.6V421
			h8.5c1.1,0,2-0.1,2.9-0.4c0.9-0.3,1.7-0.6,2.3-1.1c0.6-0.5,1.2-1.1,1.5-1.8C673.1,417,673.3,416.2,673.3,415.2L673.3,415.2z"/>
		<path fill="#6AB653" d="M681.4,433.2V408h1.9v23.5h14.8v1.7H681.4z"/>
		<path fill="#6AB653" d="M723.9,425.5c-0.6,1.5-1.6,2.9-2.8,4c-1.2,1.1-2.6,2-4.2,2.7c-1.6,0.6-3.5,1-5.4,1h-8.4V408h8.4
			c2,0,3.8,0.3,5.4,1c1.6,0.6,3.1,1.5,4.2,2.6c1.2,1.1,2.1,2.5,2.8,4c0.6,1.5,1,3.2,1,5v0.1C724.9,422.3,724.6,424,723.9,425.5z
			 M723,420.6c0-1.5-0.3-2.9-0.8-4.2c-0.5-1.3-1.3-2.5-2.3-3.5c-1-1-2.2-1.8-3.6-2.3c-1.4-0.6-3-0.9-4.8-0.9H705v21.8h6.5
			c1.8,0,3.3-0.3,4.8-0.8s2.6-1.3,3.6-2.3s1.7-2.1,2.3-3.4C722.7,423.6,723,422.2,723,420.6L723,420.6z"/>
	</g>
</g>
<g>
	<g>
		<path fill="#6AB653" d="M467.5,397.7c12.8,0,23.2,10.4,23.2,23.2c0,12.8-10.4,23.1-23.2,23.1c-12.8,0-23.2-10.4-23.2-23.2
			C444.3,408,454.7,397.7,467.5,397.7 M467.5,395.7c-13.9,0-25.2,11.3-25.2,25.2s11.3,25.2,25.2,25.2s25.2-11.3,25.2-25.2
			S481.4,395.7,467.5,395.7L467.5,395.7z"/>
	</g>
	<g>
		<path fill="#6AB653" d="M485.1,420.4c-1.2,0.8-6.4,3.7-17.5,3.7s-16.7-3-18-3.7c0,0.1,0,0.2,0,0.4c0,0.5,0,1,0.1,1.5
			c2.4,1.2,8,3.5,17.9,3.5c9.7,0,15.1-2.2,17.4-3.4c0-0.5,0.1-1,0.1-1.5C485.1,420.6,485.1,420.5,485.1,420.4z"/>
		<path fill="#6AB653" d="M450.4,425.5L450.4,425.5L450.4,425.5c0.2,0.9,0.4,1.6,0.8,2.4c2.5,1.4,7.8,3.5,16.5,3.5
			c8.2,0,13.2-1.9,15.8-3.2c0.4-0.8,0.7-1.6,0.9-2.4c-1.2,0.9-6.3,4.1-16.7,4.1C455.6,429.8,450.5,425.5,450.4,425.5z"/>
		<path fill="#6AB653" d="M484.6,416.3c-0.1-0.5-0.3-1.1-0.5-1.6c-1.2,0.9-5.6,3.5-16.1,3.5c-10.6,0-15.7-2.7-17.2-3.6
			c-0.2,0.5-0.3,1-0.5,1.6c2,1.2,7.4,3.6,17.7,3.6C477.9,419.8,482.7,417.5,484.6,416.3z"/>
		<path fill="#6AB653" d="M453,431.1c1,1.3,2.1,2.5,3.4,3.6c2.6,1,6.3,1.8,11.4,1.8c4.5,0,7.9-0.7,10.3-1.6c1.5-1.1,2.7-2.4,3.8-3.9
			c-0.5,0.5-4.5,3.9-14.1,3.9C458.2,434.9,453.7,431.6,453,431.1z"/>
		<path fill="#6AB653" d="M483.1,432L483.1,432L483.1,432L483.1,432z"/>
		<path fill="#6AB653" d="M467.9,404.8c2.4-0.1,4-0.7,4.8-1c-1.1-0.3-2.2-0.6-3.4-0.7c-0.6-0.1-1.3-0.1-1.9-0.1
			c-0.6,0-1.2,0-1.9,0.1c-1.2,0.1-2.3,0.4-3.4,0.7c0.7,0.3,2.8,1,5.3,1C467.6,404.8,467.7,404.8,467.9,404.8z"/>
		<path fill="#6AB653" d="M468,438.6c-0.8,0-1.6,0-2.3-0.1c-1.2,0.1-2.3,0.4-3.4,0.7c0.7,0.3,2.8,1,5.3,1c0.2,0,0.3,0,0.5,0
			c2.4-0.1,4-0.7,4.8-1c-1.1-0.3-2.2-0.6-3.4-0.7C469,438.5,468.5,438.6,468,438.6z"/>
		<path fill="#6AB653" d="M478.3,406.8c-0.4-0.3-0.9-0.7-1.4-1c-1.4,0.9-4.2,2.1-9.2,2.1s-8.2-1.2-9.9-2c-0.5,0.3-1,0.7-1.4,1
			c1.7,1,5.3,2.6,11.4,2.6C473.7,409.5,476.9,407.8,478.3,406.8z"/>
		<path fill="#6AB653" d="M482.3,411.1c-0.3-0.4-0.6-0.9-0.9-1.3c-1.4,1.1-5.4,3.4-13.6,3.4c-7.7,0-12.1-2.3-14-3.6
			c-0.3,0.4-0.7,0.8-1,1.3c2.1,1.5,6.8,3.9,15,3.9C476.2,414.7,480.6,412.3,482.3,411.1z"/>
	</g>
</g>
</svg>
